<!DOCTYPE svg PUBLIC "-//W3C//DTD SVG 1.1//EN" "http://www.w3.org/Graphics/SVG/1.1/DTD/svg11.dtd">

<!-- Uploaded to: SVG Repo, www.svgrepo.com, Transformed by: SVG Repo Mixer Tools -->
<svg fill="#FF9999" width="24px" height="24px" viewBox="0 0 24 24" xmlns="http://www.w3.org/2000/svg" stroke="#FF9999" transform="matrix(-1, 0, 0, 1, 0, 0)">

<g id="SVGRepo_bgCarrier" stroke-width="0"/>

<g id="SVGRepo_tracerCarrier" stroke-linecap="round" stroke-linejoin="round" stroke="#CCCCCC" stroke-width="0.144"/>

<g id="SVGRepo_iconCarrier"> <path d="M15,16 C14.1478301,16 13.7025662,15.0144864 14.2167748,14.3774732 L14.2928932,14.2928932 L16.5839732,12.0006549 C15.3147149,10.797551 13.3016915,10 11,10 C7.081722,10 4,12.3112915 4,15 C4,15.5522847 3.55228475,16 3,16 C2.44771525,16 2,15.5522847 2,15 C2,11.0612915 6.081722,8 11,8 C13.8066928,8 16.3409534,8.99693838 17.9996912,10.5849581 L20.2928932,8.29289322 C20.8954683,7.69031813 21.9071808,8.07233231 21.9940167,8.88636906 L22,9 L22,15 C22,15.5128358 21.6139598,15.9355072 21.1166211,15.9932723 L21,16 L15,16 Z"/> </g>

</svg>